<svg xmlns="http://www.w3.org/2000/svg" width="771.234" height="294.555" viewBox="0 0 771.234 294.555"><g transform="translate(-575.273 -237.852)"><path d="M-81.621-27.637H-97.344V0H-135.43V-27.637h-56.934v-28.32l59.375-86.816h35.645v86.328h15.723ZM-135.43-56.445v-16.6q0-4.687.342-12.646a82.068,82.068,0,0,1,.537-8.35h-1.074a103.043,103.043,0,0,1-7.52,14.063l-15.82,23.535ZM51.563-71.191q0,37.891-12.7,55.518T0,1.953q-25.586,0-38.574-18.408T-51.562-71.191q0-38.086,12.7-55.859T0-144.824q25.488,0,38.525,18.506T51.563-71.191Zm-64.746,0q0,24.219,3.027,33.3T0-28.809q7.227,0,10.205-9.375t2.979-33.008q0-23.73-3.027-33.252T0-113.965q-7.129,0-10.156,9.18T-13.184-71.191ZM192.754-27.637H177.031V0H138.945V-27.637H82.012v-28.32l59.375-86.816h35.645v86.328h15.723ZM138.945-56.445v-16.6q0-4.687.342-12.646a82.068,82.068,0,0,1,.537-8.35H138.75a103.043,103.043,0,0,1-7.52,14.063L115.41-56.445Z" transform="translate(960 468)" fill="#e30b17"/><path d="M0,4.406A120.464,120.464,0,0,1-24.112,2.1,91.341,91.341,0,0,1-45.088-4.847,81.241,81.241,0,0,1-62.91-16.423a88.185,88.185,0,0,1-14.646-16.2A112.253,112.253,0,0,1-88.973-53.363a157.468,157.468,0,0,1-8.144-25.208A230.616,230.616,0,0,1-102-108.244a338.907,338.907,0,0,1-1.626-34.139c0-12.652.535-24.628,1.589-35.595a244.172,244.172,0,0,1,4.771-30.532A157.031,157.031,0,0,1-89.3-233.981a103.864,103.864,0,0,1,11.163-20.411,82.926,82.926,0,0,1,14.467-15.646,80.154,80.154,0,0,1,17.86-11.178,94.607,94.607,0,0,1,21.23-6.7A129.107,129.107,0,0,1,0-290.148a119.139,119.139,0,0,1,24.033,2.324,90.858,90.858,0,0,1,20.934,6.979,81.443,81.443,0,0,1,17.816,11.638A89.073,89.073,0,0,1,77.46-252.925a112.749,112.749,0,0,1,11.459,20.863,158.665,158.665,0,0,1,8.174,25.379,232.936,232.936,0,0,1,4.9,29.892,342.9,342.9,0,0,1,1.632,34.407c0,12.587-.535,24.5-1.589,35.406a241.294,241.294,0,0,1-4.771,30.355A155.058,155.058,0,0,1,89.3-51.314,102.609,102.609,0,0,1,78.14-31.055,82.509,82.509,0,0,1,63.672-15.538,80.256,80.256,0,0,1,45.812-4.452a95.175,95.175,0,0,1-21.23,6.646A130.141,130.141,0,0,1,0,4.406ZM0-289.148a128.113,128.113,0,0,0-24.392,2.212A93.614,93.614,0,0,0-45.4-280.307a79.157,79.157,0,0,0-17.638,11.038,81.931,81.931,0,0,0-14.292,15.458A102.867,102.867,0,0,0-88.381-233.6a156.042,156.042,0,0,0-7.909,25.309,243.185,243.185,0,0,0-4.751,30.406c-1.051,10.935-1.585,22.879-1.585,35.5A337.925,337.925,0,0,0-101-108.345,229.619,229.619,0,0,0-96.144-78.8a156.474,156.474,0,0,0,8.091,25.048A111.258,111.258,0,0,0-76.74-33.2,87.184,87.184,0,0,0-62.26-17.183a80.238,80.238,0,0,0,17.6,11.434A90.344,90.344,0,0,0-23.911,1.116,119.462,119.462,0,0,0,0,3.406,129.145,129.145,0,0,0,24.392,1.212,94.173,94.173,0,0,0,45.4-5.362,79.257,79.257,0,0,0,63.037-16.31,81.518,81.518,0,0,0,77.329-31.64,101.612,101.612,0,0,0,88.382-51.7,154.073,154.073,0,0,0,96.29-76.845a240.294,240.294,0,0,0,4.751-30.228c1.051-10.874,1.585-22.754,1.585-35.31A341.876,341.876,0,0,0,101-176.689a231.937,231.937,0,0,0-4.878-29.763A157.673,157.673,0,0,0,88-231.671a111.744,111.744,0,0,0-11.356-20.678,88.062,88.062,0,0,0-14.511-16.1,80.447,80.447,0,0,0-17.6-11.495,89.854,89.854,0,0,0-20.7-6.9A118.136,118.136,0,0,0,0-289.148ZM354.563.5H277.391V-54.773H163.523v-57.3l.087-.128,118.9-173.851h72.053v172.656h31.445v58.617H354.563Zm-76.172-1h75.172V-55.773h31.445v-56.617H353.563V-285.047H283.037L164.523-111.759v55.986H278.391ZM-194.187.5h-77.172V-54.773H-385.227v-57.3l.087-.128,118.9-173.851h72.053v172.656h31.445v58.617h-31.445Zm-76.172-1h75.172V-55.773h31.445v-56.617h-31.445V-285.047h-70.525L-384.227-111.759v55.986h113.867ZM0-57.117a18.244,18.244,0,0,1-12.54-4.668A24.591,24.591,0,0,1-17.2-67.579a41.39,41.39,0,0,1-3.585-8.044c-2.021-6.063-3.557-14.758-4.565-25.845-1.006-11.063-1.516-24.829-1.516-40.914,0-16.215.51-30.1,1.516-41.256,1.008-11.184,2.543-19.961,4.564-26.088a42.053,42.053,0,0,1,3.584-8.129,24.806,24.806,0,0,1,4.661-5.855A18.135,18.135,0,0,1,0-228.43a17.776,17.776,0,0,1,12.549,4.9,25.579,25.579,0,0,1,4.658,6.069,44.424,44.424,0,0,1,3.582,8.427c2.02,6.352,3.555,15.186,4.562,26.254,1.006,11.047,1.516,24.64,1.516,40.4,0,15.7-.5,29.216-1.491,40.182-.992,10.987-2.5,19.73-4.489,25.985a42.644,42.644,0,0,1-3.552,8.3,24.947,24.947,0,0,1-4.667,5.979A18.137,18.137,0,0,1,0-57.117ZM0-227.43a18.237,18.237,0,0,0-6.44,1.115,17.034,17.034,0,0,0-5.432,3.345c-3.3,2.987-5.985,7.547-7.966,13.555-2,6.055-3.517,14.757-4.518,25.865-1,11.131-1.512,24.981-1.512,41.166,0,16.055.509,29.791,1.512,40.824,1,11.01,2.521,19.63,4.517,25.619,1.981,5.943,4.66,10.454,7.964,13.408a17.069,17.069,0,0,0,5.432,3.31A18.419,18.419,0,0,0,0-58.117a18.278,18.278,0,0,0,6.518-1.139,17.028,17.028,0,0,0,5.473-3.417c3.321-3.051,5.993-7.709,7.943-13.846C21.9-82.7,23.4-91.376,24.38-102.291c.987-10.936,1.487-24.425,1.487-40.092,0-15.731-.509-29.294-1.512-40.311-1-11-2.522-19.758-4.52-26.041-1.983-6.236-4.664-10.969-7.971-14.069a16.94,16.94,0,0,0-5.43-3.469A17.637,17.637,0,0,0,0-227.43ZM278.391-112.391H229.882l32.161-47.844a206.548,206.548,0,0,0,15-28.053l.132-.3h3.283l-.357.714c-.136.377-.448,3.035-1.027,16.507-.453,10.556-.683,19.059-.683,25.271Zm-46.632-1h45.632v-32.7c0-6.227.23-14.744.684-25.314.485-11.288.775-14.918.954-16.178h-1.2a207.411,207.411,0,0,1-14.944,27.9l-.006.009Zm-502.118,1h-48.509l32.161-47.844a206.548,206.548,0,0,0,15-28.053l.132-.3h3.283l-.357.714c-.136.377-.448,3.035-1.027,16.507-.453,10.556-.683,19.059-.683,25.271Zm-46.632-1h45.632v-32.7c0-6.227.23-14.744.684-25.314.485-11.288.775-14.918.954-16.178h-1.2a207.411,207.411,0,0,1-14.944,27.9l-.006.009Z" transform="translate(960.5 528)" fill="#cd2f28"/></g></svg>