<svg xmlns="http://www.w3.org/2000/svg" xmlns:xlink="http://www.w3.org/1999/xlink" width="236" height="236" viewBox="0 0 236 236"><defs><clipPath id="a"><rect width="236" height="236" transform="translate(-0.008)" fill="#e30b17"/></clipPath></defs><g transform="translate(0.008 0.141)"><g transform="translate(0 -0.141)" clip-path="url(#a)"><path d="M233.809,96.1a8.723,8.723,0,0,0-17.172,3.083q.011.061.022.122a101.832,101.832,0,0,1,1.721,18.608,100.492,100.492,0,1,1-41.363-81.23A8.723,8.723,0,0,0,187.465,22.71c-.052-.039-.1-.078-.158-.116A117.9,117.9,0,1,0,72.036,226.551,117.944,117.944,0,0,0,235.826,117.913,119.309,119.309,0,0,0,233.809,96.1" transform="translate(0 0.166)" fill="#e30b17"/><path d="M283.625,200.611a8.723,8.723,0,0,0-12.31,12.364q.074.074.149.145l50.473,49.07a8.734,8.734,0,0,0,12.335-.175c.2-.208.395-.427.572-.65l95.087-119.548a8.723,8.723,0,1,0-13.655-10.858l-89.087,112Z" transform="translate(-205.632 -97.455)" fill="#e30b17"/></g></g></svg>